<svg width="24" height="24" viewBox="0 0 24 24" fill="none" xmlns="http://www.w3.org/2000/svg">
<g id="Atom">
<path id="Vector" d="M19.6917 19.6893C21.3026 18.0784 19.1656 13.3297 14.9187 9.08272C10.6717 4.83577 5.92299 2.69883 4.31208 4.30975C2.70117 5.92066 4.8381 10.6694 9.08505 14.9163C13.332 19.1633 18.0807 21.3002 19.6917 19.6893Z" stroke="#5B5FC7" stroke-linecap="round" stroke-linejoin="round"/>
<path id="Vector_2" d="M14.9187 14.9173C19.1656 10.6703 21.3026 5.92159 19.6917 4.31068C18.0807 2.69977 13.332 4.8367 9.08505 9.08365C4.8381 13.3306 2.70117 18.0793 4.31208 19.6903C5.92299 21.3012 10.6717 19.1642 14.9187 14.9173Z" stroke="#5B5FC7" stroke-linecap="round" stroke-linejoin="round"/>
<path id="Vector_3" d="M12 12.75C12.4142 12.75 12.75 12.4142 12.75 12C12.75 11.5858 12.4142 11.25 12 11.25C11.5858 11.25 11.25 11.5858 11.25 12C11.25 12.4142 11.5858 12.75 12 12.75Z" fill="#5B5FC7"/>
</g>
</svg>
