<svg width="85" height="54" viewBox="0 0 85 54" fill="none">
  <g clip-path="url(#clip0_501_17399)">
    <path d="M7.95455 43.5625L15.9091 53.9995L7.95455 64.4364L0 53.9995L7.95455 43.5625Z" fill="#2F2F4A"/>
    <path d="M16.5913 32.6719L24.5458 43.1088L16.5913 53.5458L8.63672 43.1088L16.5913 32.6719Z" fill="#444791"/>
    <path d="M25.227 21.7812L33.1816 32.2182L25.227 42.6552L17.2725 32.2182L25.227 21.7812Z" fill="#5B5FC7"/>
    <path d="M33.8637 10.8906L41.8183 21.3276L33.8637 31.7646L25.9092 21.3276L33.8637 10.8906Z" fill="#9299F7"/>
    <path d="M42.5004 0L50.455 10.437L42.5004 20.8739L34.5459 10.437L42.5004 0Z" fill="#E8EBFA"/>
    <path d="M25.227 43.5625L33.1816 53.9995L25.227 64.4364L17.2725 53.9995L25.227 43.5625Z" fill="#2F2F4A"/>
    <path d="M33.8637 32.6719L41.8183 43.1088L33.8637 53.5458L25.9092 43.1088L33.8637 32.6719Z" fill="#444791"/>
    <path d="M42.5004 21.7812L50.455 32.2182L42.5004 42.6552L34.5459 32.2182L42.5004 21.7812Z" fill="#5B5FC7"/>
    <path d="M51.1362 10.8906L59.0907 21.3276L51.1362 31.7646L43.1816 21.3276L51.1362 10.8906Z" fill="#9299F7"/>
    <path d="M42.5004 43.5625L50.455 53.9995L42.5004 64.4364L34.5459 53.9995L42.5004 43.5625Z" fill="#2F2F4A"/>
    <path d="M51.1362 32.6719L59.0907 43.1088L51.1362 53.5458L43.1816 43.1088L51.1362 32.6719Z" fill="#444791"/>
    <path d="M59.7729 21.7812L67.7274 32.2182L59.7729 42.6552L51.8184 32.2182L59.7729 21.7812Z" fill="#5B5FC7"/>
    <path d="M59.7729 43.5625L67.7274 53.9995L59.7729 64.4364L51.8184 53.9995L59.7729 43.5625Z" fill="#2F2F4A"/>
    <path d="M68.4086 32.6719L76.3632 43.1088L68.4086 53.5458L60.4541 43.1088L68.4086 32.6719Z" fill="#444791"/>
    <path d="M77.0454 43.5625L84.9999 53.9995L77.0454 64.4364L69.0908 53.9995L77.0454 43.5625Z" fill="#2F2F4A"/>
  </g>
  <defs>
    <clipPath id="clip0_501_17399">
      <rect width="85" height="54" fill="white"/>
    </clipPath>
  </defs>
</svg>