<svg width="16" height="16" viewBox="0 0 16 16" fill="none">
<path d="M8 6.5V9" stroke="#EE5157" stroke-linecap="round" stroke-linejoin="round"/>
<path d="M7.1374 2.50016L1.6374 12.0002C1.54978 12.1519 1.50357 12.324 1.50342 12.4993C1.50326 12.6745 1.54916 12.8467 1.63651 12.9986C1.72386 13.1506 1.8496 13.2768 2.00113 13.3649C2.15266 13.4529 2.32466 13.4995 2.4999 13.5002H13.4999C13.6751 13.4995 13.8471 13.4529 13.9987 13.3649C14.1502 13.2768 14.2759 13.1506 14.3633 12.9986C14.4506 12.8467 14.4965 12.6745 14.4964 12.4993C14.4962 12.324 14.45 12.1519 14.3624 12.0002L8.8624 2.50016C8.77543 2.3482 8.64987 2.22192 8.49841 2.13409C8.34695 2.04626 8.17498 2 7.9999 2C7.82481 2 7.65284 2.04626 7.50138 2.13409C7.34992 2.22192 7.22436 2.3482 7.1374 2.50016V2.50016Z" stroke="#EE5157" stroke-linecap="round" stroke-linejoin="round"/>
<path d="M8 11.75C8.27614 11.75 8.5 11.5261 8.5 11.25C8.5 10.9739 8.27614 10.75 8 10.75C7.72386 10.75 7.5 10.9739 7.5 11.25C7.5 11.5261 7.72386 11.75 8 11.75Z" fill="#EE5157"/>
</svg>