<svg style="width: 100%, max-width: 1246px" height="8" viewBox="0 0 1296 8" fill="none">
<path d="M1295.85 4.35355C1296.05 4.15829 1296.05 3.84171 1295.85 3.64645L1292.67 0.464466C1292.48 0.269204 1292.16 0.269204 1291.96 0.464466C1291.77 0.659728 1291.77 0.976311 1291.96 1.17157L1294.79 4L1291.96 6.82843C1291.77 7.02369 1291.77 7.34027 1291.96 7.53553C1292.16 7.7308 1292.48 7.7308 1292.67 7.53553L1295.85 4.35355ZM0.5 4.5H2.49846V3.5H0.5V4.5ZM6.49537 4.5H10.4923V3.5H6.49537V4.5ZM14.4892 4.5H18.4861V3.5H14.4892V4.5ZM22.483 4.5H26.4799V3.5H22.483V4.5ZM30.4769 4.5H34.4738V3.5H30.4769V4.5ZM38.4707 4.5H42.4676V3.5H38.4707V4.5ZM46.4645 4.5H50.4614V3.5H46.4645V4.5ZM54.4583 4.5H58.4552V3.5H54.4583V4.5ZM62.4522 4.5H66.4491V3.5H62.4522V4.5ZM70.446 4.5H74.4429V3.5H70.446V4.5ZM78.4398 4.5H82.4367V3.5H78.4398V4.5ZM86.4336 4.5H90.4305V3.5H86.4336V4.5ZM94.4274 4.5H98.4244V3.5H94.4274V4.5ZM102.421 4.5H106.418V3.5H102.421V4.5ZM110.415 4.5H114.412V3.5H110.415V4.5ZM118.409 4.5H122.406V3.5H118.409V4.5ZM126.403 4.5H130.4V3.5H126.403V4.5ZM134.397 4.5H138.393V3.5H134.397V4.5ZM142.39 4.5H146.387V3.5H142.39V4.5ZM150.384 4.5H154.381V3.5H150.384V4.5ZM158.378 4.5H162.375V3.5H158.378V4.5ZM166.372 4.5H170.369V3.5H166.372V4.5ZM174.366 4.5H178.363V3.5H174.366V4.5ZM182.36 4.5H186.356V3.5H182.36V4.5ZM190.353 4.5H194.35V3.5H190.353V4.5ZM198.347 4.5H202.344V3.5H198.347V4.5ZM206.341 4.5H210.338V3.5H206.341V4.5ZM214.335 4.5H218.332V3.5H214.335V4.5ZM222.329 4.5H226.326V3.5H222.329V4.5ZM230.323 4.5H234.32V3.5H230.323V4.5ZM238.316 4.5H242.313V3.5H238.316V4.5ZM246.31 4.5H250.307V3.5H246.31V4.5ZM254.304 4.5H258.301V3.5H254.304V4.5ZM262.298 4.5H266.295V3.5H262.298V4.5ZM270.292 4.5H274.289V3.5H270.292V4.5ZM278.286 4.5H282.283V3.5H278.286V4.5ZM286.279 4.5H290.276V3.5H286.279V4.5ZM294.273 4.5H298.27V3.5H294.273V4.5ZM302.267 4.5H306.264V3.5H302.267V4.5ZM310.261 4.5H314.258V3.5H310.261V4.5ZM318.255 4.5H322.252V3.5H318.255V4.5ZM326.249 4.5H330.246V3.5H326.249V4.5ZM334.242 4.5H338.239V3.5H334.242V4.5ZM342.236 4.5H346.233V3.5H342.236V4.5ZM350.23 4.5H354.227V3.5H350.23V4.5ZM358.224 4.5H362.221V3.5H358.224V4.5ZM366.218 4.5H370.215V3.5H366.218V4.5ZM374.212 4.5H378.209V3.5H374.212V4.5ZM382.205 4.5H386.202V3.5H382.205V4.5ZM390.199 4.5H394.196V3.5H390.199V4.5ZM398.193 4.5H402.19V3.5H398.193V4.5ZM406.187 4.5H410.184V3.5H406.187V4.5ZM414.181 4.5H418.178V3.5H414.181V4.5ZM422.175 4.5H426.172V3.5H422.175V4.5ZM430.168 4.5H434.165V3.5H430.168V4.5ZM438.162 4.5H442.159V3.5H438.162V4.5ZM446.156 4.5H450.153V3.5H446.156V4.5ZM454.15 4.5H458.147V3.5H454.15V4.5ZM462.144 4.5H466.141V3.5H462.144V4.5ZM470.138 4.5H474.135V3.5H470.138V4.5ZM478.132 4.5H482.128V3.5H478.132V4.5ZM486.125 4.5H490.122V3.5H486.125V4.5ZM494.119 4.5H498.116V3.5H494.119V4.5ZM502.113 4.5H506.11V3.5H502.113V4.5ZM510.107 4.5H514.104V3.5H510.107V4.5ZM518.101 4.5H522.097V3.5H518.101V4.5ZM526.094 4.5H530.091V3.5H526.094V4.5ZM534.088 4.5H538.085V3.5H534.088V4.5ZM542.082 4.5H546.079V3.5H542.082V4.5ZM550.076 4.5H554.073V3.5H550.076V4.5ZM558.069 4.5H562.066V3.5H558.069V4.5ZM566.063 4.5H570.06V3.5H566.063V4.5ZM574.057 4.5H578.054V3.5H574.057V4.5ZM582.051 4.5H586.048V3.5H582.051V4.5ZM590.045 4.5H594.041V3.5H590.045V4.5ZM598.038 4.5H602.035V3.5H598.038V4.5ZM606.032 4.5H610.029V3.5H606.032V4.5ZM614.026 4.5H618.023V3.5H614.026V4.5ZM622.02 4.5H626.017V3.5H622.02V4.5ZM630.013 4.5H634.01V3.5H630.013V4.5ZM638.007 4.5H642.004V3.5H638.007V4.5ZM646.001 4.5H649.998V3.5H646.001V4.5ZM653.995 4.5H657.992V3.5H653.995V4.5ZM661.989 4.5H665.985V3.5H661.989V4.5ZM669.982 4.5H673.979V3.5H669.982V4.5ZM677.976 4.5H681.973V3.5H677.976V4.5ZM685.97 4.5H689.967V3.5H685.97V4.5ZM693.964 4.5H697.961V3.5H693.964V4.5ZM701.957 4.5H705.954V3.5H701.957V4.5ZM709.951 4.5H713.948V3.5H709.951V4.5ZM717.945 4.5H721.942V3.5H717.945V4.5ZM725.939 4.5H729.936V3.5H725.939V4.5ZM733.932 4.5H737.929V3.5H733.932V4.5ZM741.926 4.5H745.923V3.5H741.926V4.5ZM749.92 4.5H753.917V3.5H749.92V4.5ZM757.914 4.5H761.911V3.5H757.914V4.5ZM765.908 4.5H769.904V3.5H765.908V4.5ZM773.901 4.5H777.898V3.5H773.901V4.5ZM781.895 4.5H785.892V3.5H781.895V4.5ZM789.889 4.5H793.886V3.5H789.889V4.5ZM797.883 4.5H801.88V3.5H797.883V4.5ZM805.876 4.5H809.873V3.5H805.876V4.5ZM813.87 4.5H817.867V3.5H813.87V4.5ZM821.864 4.5H825.861V3.5H821.864V4.5ZM829.858 4.5H833.855V3.5H829.858V4.5ZM837.852 4.5H841.848V3.5H837.852V4.5ZM845.845 4.5H849.842V3.5H845.845V4.5ZM853.839 4.5H857.836V3.5H853.839V4.5ZM861.833 4.5H865.83V3.5H861.833V4.5ZM869.827 4.5H873.824V3.5H869.827V4.5ZM877.82 4.5H881.817V3.5H877.82V4.5ZM885.814 4.5H889.811V3.5H885.814V4.5ZM893.808 4.5H897.805V3.5H893.808V4.5ZM901.802 4.5H905.799V3.5H901.802V4.5ZM909.796 4.5H913.792V3.5H909.796V4.5ZM917.789 4.5H921.786V3.5H917.789V4.5ZM925.783 4.5H929.78V3.5H925.783V4.5ZM933.777 4.5H937.774V3.5H933.777V4.5ZM941.771 4.5H945.768V3.5H941.771V4.5ZM949.764 4.5H953.761V3.5H949.764V4.5ZM957.758 4.5H961.755V3.5H957.758V4.5ZM965.752 4.5H969.749V3.5H965.752V4.5ZM973.746 4.5H977.743V3.5H973.746V4.5ZM981.74 4.5H985.736V3.5H981.74V4.5ZM989.733 4.5H993.73V3.5H989.733V4.5ZM997.727 4.5H1001.72V3.5H997.727V4.5ZM1005.72 4.5H1009.72V3.5H1005.72V4.5ZM1013.71 4.5H1017.71V3.5H1013.71V4.5ZM1021.71 4.5H1025.71V3.5H1021.71V4.5ZM1029.7 4.5H1033.7V3.5H1029.7V4.5ZM1037.7 4.5H1041.69V3.5H1037.7V4.5ZM1045.69 4.5H1049.69V3.5H1045.69V4.5ZM1053.68 4.5H1057.68V3.5H1053.68V4.5ZM1061.68 4.5H1065.67V3.5H1061.68V4.5ZM1069.67 4.5H1073.67V3.5H1069.67V4.5ZM1077.67 4.5H1081.66V3.5H1077.67V4.5ZM1085.66 4.5H1089.66V3.5H1085.66V4.5ZM1093.65 4.5H1097.65V3.5H1093.65V4.5ZM1101.65 4.5H1105.64V3.5H1101.65V4.5ZM1109.64 4.5H1113.64V3.5H1109.64V4.5ZM1117.64 4.5H1121.63V3.5H1117.64V4.5ZM1125.63 4.5H1129.63V3.5H1125.63V4.5ZM1133.62 4.5H1137.62V3.5H1133.62V4.5ZM1141.62 4.5H1145.61V3.5H1141.62V4.5ZM1149.61 4.5H1153.61V3.5H1149.61V4.5ZM1157.6 4.5H1161.6V3.5H1157.6V4.5ZM1165.6 4.5H1169.6V3.5H1165.6V4.5ZM1173.59 4.5H1177.59V3.5H1173.59V4.5ZM1181.59 4.5H1185.58V3.5H1181.59V4.5ZM1189.58 4.5H1193.58V3.5H1189.58V4.5ZM1197.57 4.5H1201.57V3.5H1197.57V4.5ZM1205.57 4.5H1209.56V3.5H1205.57V4.5ZM1213.56 4.5H1217.56V3.5H1213.56V4.5ZM1221.56 4.5H1225.55V3.5H1221.56V4.5ZM1229.55 4.5H1233.55V3.5H1229.55V4.5ZM1237.54 4.5H1241.54V3.5H1237.54V4.5ZM1245.54 4.5H1249.53V3.5H1245.54V4.5ZM1253.53 4.5H1257.53V3.5H1253.53V4.5ZM1261.53 4.5H1265.52V3.5H1261.53V4.5ZM1269.52 4.5H1273.52V3.5H1269.52V4.5ZM1277.51 4.5H1281.51V3.5H1277.51V4.5ZM1285.51 4.5H1289.5V3.5H1285.51V4.5ZM1293.5 4.5H1295.5V3.5H1293.5V4.5Z" fill="#5B5FC7"/>
</svg>
