<svg width="6" height="8" viewBox="0 0 6 8" fill="none" xmlns="http://www.w3.org/2000/svg">
<path id="&#208;&#160;" d="M0.0742188 0H2.88565C3.89898 0 4.65708 0.236191 5.15993 0.708572C5.67041 1.17333 5.92565 1.80571 5.92565 2.60571C5.92565 3.41333 5.67041 4.05333 5.15993 4.52571C4.65708 4.99048 3.89898 5.22286 2.88565 5.22286H1.43422V8H0.0742188V0ZM2.88565 4.06857C3.47231 4.06857 3.89517 3.94667 4.15422 3.70286C4.42089 3.45143 4.55422 3.08571 4.55422 2.60571C4.55422 2.13333 4.42089 1.77524 4.15422 1.53143C3.89517 1.28 3.47231 1.15429 2.88565 1.15429H1.43422V4.06857H2.88565Z" fill="#FFB900"/>
</svg>
