<svg width="1180" height="97" viewBox="0 0 1180 97" fill="none" xmlns="http://www.w3.org/2000/svg">
<path d="M744.344 0H749.134V15.5711H754.536L765.34 0H770.792L758.46 17.4089L771.811 35.7368H766.002L754.536 19.7063H749.134V35.7368H744.344V0Z" fill="#616161"/>
<path d="M784.859 36.0942C781.462 36.0942 778.761 35.0561 776.757 32.98C774.752 30.8698 773.75 27.8407 773.75 23.8926V20.0126C773.75 18.1747 774.005 16.5411 774.515 15.1116C775.058 13.6481 775.806 12.4228 776.757 11.4358C777.742 10.4147 778.914 9.64895 780.273 9.13842C781.632 8.59386 783.161 8.32158 784.859 8.32158C786.558 8.32158 788.087 8.59386 789.446 9.13842C790.805 9.64895 791.96 10.4147 792.911 11.4358C793.896 12.4228 794.644 13.6481 795.153 15.1116C795.697 16.5411 795.969 18.1747 795.969 20.0126V23.8926C795.969 27.8407 794.966 30.8698 792.962 32.98C790.958 35.0561 788.257 36.0942 784.859 36.0942ZM784.859 32.1121C786.898 32.1121 788.512 31.4654 789.701 30.1721C790.89 28.8447 791.484 26.7516 791.484 23.8926V20.0126C791.484 17.426 790.89 15.503 789.701 14.2437C788.512 12.9504 786.898 12.3037 784.859 12.3037C782.821 12.3037 781.207 12.9504 780.018 14.2437C778.829 15.503 778.235 17.426 778.235 20.0126V23.8926C778.235 26.7516 778.829 28.8447 780.018 30.1721C781.207 31.4654 782.821 32.1121 784.859 32.1121Z" fill="#616161"/>
<path d="M802.443 8.67895H806.978V20.0126H819.31V8.67895H823.846V35.7368H819.31V23.8926H806.978V35.7368H802.443V8.67895Z" fill="#616161"/>
<path d="M837.162 12.61H828.55V8.67895H850.259V12.61H841.646V35.7368H837.162V12.61Z" fill="#616161"/>
<path d="M854.945 8.67895H858.971V13.1716C859.752 11.674 860.788 10.4998 862.079 9.64895C863.404 8.79807 865.035 8.37263 866.971 8.37263C868.398 8.37263 869.706 8.6279 870.895 9.13842C872.084 9.64895 873.104 10.3977 873.953 11.3847C874.836 12.3377 875.516 13.546 875.991 15.0095C876.501 16.473 876.756 18.1407 876.756 20.0126V23.8926C876.756 25.9007 876.501 27.6705 875.991 29.2021C875.516 30.7337 874.836 32.01 873.953 33.0311C873.104 34.0521 872.084 34.8179 870.895 35.3284C869.706 35.839 868.398 36.0942 866.971 36.0942C865.137 36.0942 863.591 35.6688 862.334 34.8179C861.077 33.967 860.126 32.8779 859.48 31.5505V45.9474H854.945V8.67895ZM866.054 32.1121C867.889 32.1121 869.384 31.4654 870.539 30.1721C871.694 28.8447 872.271 26.7516 872.271 23.8926V20.0126C872.271 17.46 871.694 15.554 870.539 14.2947C869.384 13.0014 867.889 12.3547 866.054 12.3547C864.016 12.3547 862.402 13.0014 861.213 14.2947C860.058 15.554 859.48 17.46 859.48 20.0126V23.8926C859.48 26.7516 860.058 28.8447 861.213 30.1721C862.402 31.4654 864.016 32.1121 866.054 32.1121Z" fill="#616161"/>
<path d="M893.149 36.0942C889.751 36.0942 887.051 35.0561 885.046 32.98C883.042 30.8698 882.04 27.8407 882.04 23.8926V20.0126C882.04 18.1747 882.294 16.5411 882.804 15.1116C883.348 13.6481 884.095 12.4228 885.046 11.4358C886.031 10.4147 887.203 9.64895 888.562 9.13842C889.921 8.59386 891.45 8.32158 893.149 8.32158C894.847 8.32158 896.376 8.59386 897.735 9.13842C899.094 9.64895 900.249 10.4147 901.2 11.4358C902.186 12.4228 902.933 13.6481 903.443 15.1116C903.986 16.5411 904.258 18.1747 904.258 20.0126V23.8926C904.258 27.8407 903.256 30.8698 901.251 32.98C899.247 35.0561 896.546 36.0942 893.149 36.0942ZM893.149 32.1121C895.187 32.1121 896.801 31.4654 897.99 30.1721C899.179 28.8447 899.774 26.7516 899.774 23.8926V20.0126C899.774 17.426 899.179 15.503 897.99 14.2437C896.801 12.9504 895.187 12.3037 893.149 12.3037C891.11 12.3037 889.497 12.9504 888.308 14.2437C887.119 15.503 886.524 17.426 886.524 20.0126V23.8926C886.524 26.7516 887.119 28.8447 888.308 30.1721C889.497 31.4654 891.11 32.1121 893.149 32.1121Z" fill="#616161"/>
<path d="M908.286 31.959C909.237 31.6186 910.001 31.1251 910.579 30.4784C911.191 29.7977 911.649 28.9468 911.955 27.9258C912.295 26.8707 912.515 25.6284 912.617 24.1989C912.719 22.7354 912.77 21.0507 912.77 19.1447V8.67895H931.88V35.7368H927.345V12.61H917.204V19.1447C917.204 21.6293 917.068 23.9097 916.796 25.9858C916.524 28.0619 916.049 29.8488 915.369 31.3463C914.69 32.8439 913.772 34.0181 912.617 34.8689C911.496 35.6858 910.052 36.0942 908.286 36.0942V31.959Z" fill="#616161"/>
<path d="M939.546 8.67895H944.081V18.9916H950.197C953.764 18.9916 956.346 19.7233 957.942 21.1868C959.539 22.6504 960.338 24.7265 960.338 27.4153C960.338 30.07 959.539 32.1291 957.942 33.5926C956.346 35.0221 953.764 35.7368 950.197 35.7368H939.546V8.67895ZM950.197 31.8058C952.337 31.8058 953.815 31.4484 954.63 30.7337C955.445 30.0189 955.853 28.8958 955.853 27.3642C955.853 25.7986 955.445 24.6584 954.63 23.9437C953.815 23.2289 952.337 22.8716 950.197 22.8716H944.081V31.8058H950.197Z" fill="#616161"/>
<path d="M978.512 8.67895H983.048V20.0126H986.564L995.227 8.67895H1000.27L990.284 21.7995L1001.09 35.7368H995.788L986.615 23.8926H983.048V35.7368H978.512V8.67895Z" fill="#616161"/>
<path d="M1011.95 36.0432C1009.47 36.0432 1007.53 35.3625 1006.14 34.0011C1004.75 32.6056 1004.05 30.6656 1004.05 28.1811C1004.05 25.5604 1004.8 23.5693 1006.29 22.2079C1007.79 20.8125 1010.18 20.1147 1013.48 20.1147H1019.9V17.5111C1019.9 15.6732 1019.48 14.3458 1018.63 13.5289C1017.81 12.6781 1016.54 12.2526 1014.8 12.2526C1013.92 12.2526 1013.17 12.3547 1012.56 12.5589C1011.95 12.7291 1011.46 12.9844 1011.08 13.3247C1010.71 13.6311 1010.42 13.9884 1010.22 14.3968C1010.01 14.8053 1009.9 15.2137 1009.86 15.6221H1005.48C1005.58 14.567 1005.82 13.597 1006.19 12.7121C1006.57 11.8272 1007.13 11.0614 1007.87 10.4147C1008.62 9.76807 1009.56 9.25754 1010.68 8.88316C1011.83 8.50877 1013.22 8.32158 1014.86 8.32158C1018.12 8.32158 1020.51 9.08737 1022.04 10.6189C1023.57 12.1165 1024.33 14.4139 1024.33 17.5111V35.7368H1020.41V31.2442C1020.07 31.8228 1019.68 32.4014 1019.24 32.98C1018.8 33.5586 1018.24 34.0861 1017.56 34.5626C1016.91 35.0051 1016.13 35.3625 1015.21 35.6347C1014.3 35.907 1013.21 36.0432 1011.95 36.0432ZM1013.22 32.1632C1015.26 32.1632 1016.88 31.5675 1018.07 30.3763C1019.29 29.1511 1019.9 27.5004 1019.9 25.4242V23.7905H1013.68C1011.75 23.7905 1010.39 24.1479 1009.61 24.8626C1008.86 25.5433 1008.49 26.6325 1008.49 28.13C1008.49 29.3212 1008.88 30.2912 1009.66 31.04C1010.44 31.7888 1011.63 32.1632 1013.22 32.1632Z" fill="#616161"/>
<path d="M1045.27 23.4332C1044.69 24.1139 1043.87 24.6925 1042.82 25.1689C1041.8 25.6114 1040.6 25.8326 1039.2 25.8326C1036.21 25.8326 1033.99 25.0668 1032.53 23.5353C1031.07 21.9697 1030.34 19.4 1030.34 15.8263V8.67895H1034.87V15.5711C1034.87 17.8854 1035.3 19.5191 1036.14 20.4721C1037.03 21.3911 1038.39 21.8505 1040.22 21.8505C1041.68 21.8505 1042.8 21.5612 1043.58 20.9826C1044.4 20.404 1044.96 19.8254 1045.27 19.2468V8.67895H1049.8V35.7368H1045.27V23.4332Z" fill="#616161"/>
<path d="M1067.12 36.0942C1065.49 36.0942 1064 35.839 1062.64 35.3284C1061.31 34.7839 1060.17 34.0011 1059.22 32.98C1058.31 31.9249 1057.58 30.6486 1057.03 29.1511C1056.52 27.6195 1056.27 25.8667 1056.27 23.8926V20.0126C1056.27 16.2007 1057.2 13.3077 1059.07 11.3337C1060.97 9.32562 1063.57 8.32158 1066.87 8.32158C1070.16 8.32158 1072.74 9.32562 1074.61 11.3337C1076.52 13.3077 1077.47 16.2347 1077.47 20.1147V23.5353H1060.75C1060.79 26.6325 1061.36 28.8618 1062.48 30.2232C1063.64 31.5505 1065.19 32.2142 1067.12 32.2142C1067.97 32.2142 1068.7 32.1121 1069.31 31.9079C1069.96 31.6697 1070.49 31.3633 1070.89 30.9889C1071.34 30.6146 1071.67 30.1891 1071.91 29.7126C1072.15 29.2361 1072.32 28.7426 1072.42 28.2321H1076.96C1076.41 30.8868 1075.31 32.8609 1073.65 34.1542C1071.98 35.4475 1069.81 36.0942 1067.12 36.0942ZM1066.92 12.2016C1064.98 12.2016 1063.47 12.7972 1062.38 13.9884C1061.33 15.1456 1060.79 17.1026 1060.75 19.8595H1073.24C1073.17 17.1026 1072.59 15.1456 1071.5 13.9884C1070.45 12.7972 1068.92 12.2016 1066.92 12.2016Z" fill="#616161"/>
<path d="M1093.6 36.0942C1091.97 36.0942 1090.47 35.839 1089.11 35.3284C1087.79 34.7839 1086.65 34.0011 1085.7 32.98C1084.78 31.9249 1084.05 30.6486 1083.51 29.1511C1083 27.6195 1082.74 25.8667 1082.74 23.8926V20.0126C1082.74 18.1747 1083 16.5411 1083.51 15.1116C1084.05 13.6481 1084.78 12.4228 1085.7 11.4358C1086.65 10.4147 1087.79 9.64895 1089.11 9.13842C1090.47 8.59386 1091.97 8.32158 1093.6 8.32158C1094.99 8.32158 1096.28 8.50877 1097.47 8.88316C1098.66 9.25754 1099.71 9.80211 1100.63 10.5168C1101.55 11.2316 1102.29 12.0995 1102.87 13.1205C1103.45 14.1075 1103.81 15.2137 1103.94 16.4389H1099.41C1099.14 15.3158 1098.54 14.3458 1097.62 13.5289C1096.71 12.7121 1095.36 12.3037 1093.6 12.3037C1091.66 12.3037 1090.12 12.9504 1088.96 14.2437C1087.81 15.503 1087.23 17.426 1087.23 20.0126V23.8926C1087.23 26.7516 1087.81 28.8447 1088.96 30.1721C1090.12 31.4654 1091.66 32.1121 1093.6 32.1121C1095.36 32.1121 1096.71 31.6867 1097.62 30.8358C1098.54 29.9849 1099.12 29.0319 1099.36 27.9768H1103.94C1103.33 30.6656 1102.14 32.6907 1100.38 34.0521C1098.64 35.4135 1096.38 36.0942 1093.6 36.0942Z" fill="#616161"/>
<path d="M1116.35 12.61H1107.73V8.67895H1129.44V12.61H1120.83V35.7368H1116.35V12.61Z" fill="#616161"/>
<path d="M1134.13 8.67895H1144.22C1147.55 8.67895 1149.99 9.37667 1151.56 10.7721C1153.15 12.1335 1153.95 13.9033 1153.95 16.0816C1153.95 16.6602 1153.85 17.2388 1153.65 17.8174C1153.48 18.396 1153.2 18.9405 1152.83 19.4511C1152.49 19.9616 1152.07 20.404 1151.56 20.7784C1151.08 21.1528 1150.54 21.4421 1149.93 21.6463C1151.59 22.0547 1152.85 22.8375 1153.7 23.9947C1154.55 25.1519 1154.97 26.4963 1154.97 28.0279C1154.97 30.3763 1154.17 32.2482 1152.58 33.6437C1151.01 35.0391 1148.57 35.7368 1145.24 35.7368H1134.13V8.67895ZM1145.24 31.9079C1147.17 31.9079 1148.53 31.5675 1149.31 30.8868C1150.1 30.1721 1150.49 29.1511 1150.49 27.8237C1150.49 26.5304 1150.1 25.5433 1149.31 24.8626C1148.53 24.1819 1147.17 23.8416 1145.24 23.8416H1138.56V31.9079H1145.24ZM1144.22 20.0637C1146.15 20.0637 1147.51 19.7404 1148.3 19.0937C1149.08 18.413 1149.47 17.477 1149.47 16.2858C1149.47 15.0946 1149.08 14.1756 1148.3 13.5289C1147.51 12.8482 1146.15 12.5079 1144.22 12.5079H1138.56V20.0637H1144.22Z" fill="#616161"/>
<path d="M1167.62 36.0432C1165.14 36.0432 1163.2 35.3625 1161.81 34.0011C1160.41 32.6056 1159.72 30.6656 1159.72 28.1811C1159.72 25.5604 1160.47 23.5693 1161.96 22.2079C1163.46 20.8125 1165.85 20.1147 1169.15 20.1147H1175.57V17.5111C1175.57 15.6732 1175.14 14.3458 1174.29 13.5289C1173.48 12.6781 1172.2 12.2526 1170.47 12.2526C1169.59 12.2526 1168.84 12.3547 1168.23 12.5589C1167.62 12.7291 1167.12 12.9844 1166.75 13.3247C1166.38 13.6311 1166.09 13.9884 1165.88 14.3968C1165.68 14.8053 1165.56 15.2137 1165.53 15.6221H1161.14C1161.25 14.567 1161.48 13.597 1161.86 12.7121C1162.23 11.8272 1162.79 11.0614 1163.54 10.4147C1164.29 9.76807 1165.22 9.25754 1166.34 8.88316C1167.5 8.50877 1168.89 8.32158 1170.52 8.32158C1173.78 8.32158 1176.18 9.08737 1177.71 10.6189C1179.24 12.1165 1180 14.4139 1180 17.5111V35.7368H1176.08V31.2442C1175.74 31.8228 1175.35 32.4014 1174.9 32.98C1174.46 33.5586 1173.9 34.0861 1173.22 34.5626C1172.58 35.0051 1171.8 35.3625 1170.88 35.6347C1169.96 35.907 1168.87 36.0432 1167.62 36.0432ZM1168.89 32.1632C1170.93 32.1632 1172.54 31.5675 1173.73 30.3763C1174.96 29.1511 1175.57 27.5004 1175.57 25.4242V23.7905H1169.35C1167.41 23.7905 1166.05 24.1479 1165.27 24.8626C1164.53 25.5433 1164.15 26.6325 1164.15 28.13C1164.15 29.3212 1164.54 30.2912 1165.32 31.04C1166.11 31.7888 1167.29 32.1632 1168.89 32.1632Z" fill="#616161"/>
<path d="M752.854 87.1468C751.224 87.1468 749.729 86.8916 748.37 86.3811C747.045 85.8365 745.907 85.0537 744.956 84.0326C744.038 82.9775 743.308 81.7012 742.764 80.2037C742.255 78.6721 742 76.9193 742 74.9453V71.0653C742 69.2274 742.255 67.5937 742.764 66.1642C743.308 64.7007 744.038 63.4754 744.956 62.4884C745.907 61.4674 747.045 60.7016 748.37 60.1911C749.729 59.6465 751.224 59.3742 752.854 59.3742C754.247 59.3742 755.538 59.5614 756.727 59.9358C757.916 60.3102 758.97 60.8547 759.887 61.5695C760.804 62.2842 761.552 63.1521 762.129 64.1732C762.707 65.1602 763.063 66.2663 763.199 67.4916H758.664C758.392 66.3684 757.798 65.3984 756.88 64.5816C755.963 63.7647 754.621 63.3563 752.854 63.3563C750.918 63.3563 749.372 64.003 748.217 65.2963C747.062 66.5556 746.484 68.4786 746.484 71.0653V74.9453C746.484 77.8042 747.062 79.8974 748.217 81.2247C749.372 82.5181 750.918 83.1647 752.854 83.1647C754.621 83.1647 755.963 82.7393 756.88 81.8884C757.798 81.0375 758.375 80.0846 758.613 79.0295H763.199C762.588 81.7182 761.399 83.7433 759.632 85.1047C757.899 86.4661 755.64 87.1468 752.854 87.1468Z" fill="#616161"/>
<path d="M769.15 59.7316H773.685V70.0442H778.068C781.635 70.0442 784.217 70.776 785.813 72.2395C787.444 73.703 788.259 75.7791 788.259 78.4679C788.259 81.1226 787.444 83.1818 785.813 84.6453C784.217 86.0747 781.635 86.7895 778.068 86.7895H769.15V59.7316ZM778.068 82.9605C780.276 82.9605 781.788 82.6032 782.603 81.8884C783.418 81.1737 783.826 80.0165 783.826 78.4168C783.826 76.8172 783.418 75.66 782.603 74.9453C781.788 74.2305 780.276 73.8732 778.068 73.8732H773.685V82.9605H778.068ZM792.132 59.7316H796.668V86.7895H792.132V59.7316Z" fill="#616161"/>
<path d="M804.334 59.7316H808.359V64.2242C809.141 62.7267 810.177 61.5525 811.468 60.7016C812.793 59.8507 814.424 59.4253 816.36 59.4253C817.787 59.4253 819.095 59.6805 820.284 60.1911C821.473 60.7016 822.492 61.4504 823.342 62.4374C824.225 63.3904 824.904 64.5986 825.38 66.0621C825.89 67.5256 826.144 69.1933 826.144 71.0653V74.9453C826.144 76.9533 825.89 78.7232 825.38 80.2547C824.904 81.7863 824.225 83.0626 823.342 84.0837C822.492 85.1047 821.473 85.8705 820.284 86.3811C819.095 86.8916 817.787 87.1468 816.36 87.1468C814.526 87.1468 812.98 86.7214 811.723 85.8705C810.466 85.0196 809.515 83.9305 808.869 82.6032V97H804.334V59.7316ZM815.443 83.1647C817.277 83.1647 818.772 82.5181 819.927 81.2247C821.082 79.8974 821.66 77.8042 821.66 74.9453V71.0653C821.66 68.5126 821.082 66.6067 819.927 65.3474C818.772 64.054 817.277 63.4074 815.443 63.4074C813.404 63.4074 811.791 64.054 810.602 65.3474C809.447 66.6067 808.869 68.5126 808.869 71.0653V74.9453C808.869 77.8042 809.447 79.8974 810.602 81.2247C811.791 82.5181 813.404 83.1647 815.443 83.1647Z" fill="#616161"/>
<path d="M832.6 59.7316H837.136V70.0442H843.251C846.818 70.0442 849.4 70.776 850.997 72.2395C852.594 73.703 853.392 75.7791 853.392 78.4679C853.392 81.1226 852.594 83.1818 850.997 84.6453C849.4 86.0747 846.818 86.7895 843.251 86.7895H832.6V59.7316ZM843.251 82.8584C845.391 82.8584 846.869 82.5011 847.684 81.7863C848.5 81.0716 848.907 79.9484 848.907 78.4168C848.907 76.8512 848.5 75.7111 847.684 74.9963C846.869 74.2816 845.391 73.9242 843.251 73.9242H837.136V82.8584H843.251Z" fill="#616161"/>
<path d="M868.509 87.1468C866.878 87.1468 865.383 86.8916 864.025 86.3811C862.7 85.8365 861.561 85.0537 860.61 84.0326C859.693 82.9775 858.963 81.7012 858.419 80.2037C857.909 78.6721 857.655 76.9193 857.655 74.9453V71.0653C857.655 67.2533 858.589 64.3604 860.457 62.3863C862.36 60.3782 864.959 59.3742 868.254 59.3742C871.55 59.3742 874.132 60.3782 876 62.3863C877.903 64.3604 878.854 67.2874 878.854 71.1674V74.5879H862.139C862.173 77.6851 862.751 79.9144 863.872 81.2758C865.027 82.6032 866.573 83.2668 868.509 83.2668C869.358 83.2668 870.089 83.1647 870.7 82.9605C871.346 82.7223 871.872 82.416 872.28 82.0416C872.722 81.6672 873.061 81.2418 873.299 80.7653C873.537 80.2888 873.707 79.7953 873.809 79.2847H878.344C877.801 81.9395 876.697 83.9135 875.032 85.2068C873.367 86.5002 871.193 87.1468 868.509 87.1468ZM868.305 63.2542C866.369 63.2542 864.857 63.8498 863.77 65.0411C862.717 66.1982 862.173 68.1553 862.139 70.9121H874.624C874.556 68.1553 873.979 66.1982 872.892 65.0411C871.838 63.8498 870.31 63.2542 868.305 63.2542Z" fill="#616161"/>
<path d="M885.302 59.7316H895.392C898.721 59.7316 901.167 60.4293 902.73 61.8247C904.327 63.1861 905.125 64.956 905.125 67.1342C905.125 67.7128 905.023 68.2914 904.819 68.87C904.649 69.4486 904.378 69.9932 904.004 70.5037C903.664 71.0142 903.24 71.4567 902.73 71.8311C902.254 72.2054 901.711 72.4947 901.099 72.699C902.764 73.1074 904.021 73.8902 904.87 75.0474C905.72 76.2046 906.144 77.549 906.144 79.0805C906.144 81.429 905.346 83.3009 903.749 84.6963C902.186 86.0918 899.74 86.7895 896.411 86.7895H885.302V59.7316ZM896.411 82.9605C898.347 82.9605 899.706 82.6202 900.488 81.9395C901.269 81.2247 901.66 80.2037 901.66 78.8763C901.66 77.583 901.269 76.596 900.488 75.9153C899.706 75.2346 898.347 74.8942 896.411 74.8942H889.735V82.9605H896.411ZM895.392 71.1163C897.328 71.1163 898.687 70.793 899.469 70.1463C900.25 69.4656 900.641 68.5296 900.641 67.3384C900.641 66.1472 900.25 65.2282 899.469 64.5816C898.687 63.9009 897.328 63.5605 895.392 63.5605H889.735V71.1163H895.392Z" fill="#616161"/>
<path d="M922.51 87.1468C919.113 87.1468 916.412 86.1088 914.408 84.0326C912.403 81.9225 911.401 78.8933 911.401 74.9453V71.0653C911.401 69.2274 911.656 67.5937 912.166 66.1642C912.709 64.7007 913.456 63.4754 914.408 62.4884C915.393 61.4674 916.565 60.7016 917.924 60.1911C919.283 59.6465 920.812 59.3742 922.51 59.3742C924.209 59.3742 925.738 59.6465 927.097 60.1911C928.456 60.7016 929.611 61.4674 930.562 62.4884C931.547 63.4754 932.295 64.7007 932.804 66.1642C933.348 67.5937 933.62 69.2274 933.62 71.0653V74.9453C933.62 78.8933 932.617 81.9225 930.613 84.0326C928.609 86.1088 925.908 87.1468 922.51 87.1468ZM922.51 83.1647C924.549 83.1647 926.162 82.5181 927.352 81.2247C928.541 79.8974 929.135 77.8042 929.135 74.9453V71.0653C929.135 68.4786 928.541 66.5556 927.352 65.2963C926.162 64.003 924.549 63.3563 922.51 63.3563C920.472 63.3563 918.858 64.003 917.669 65.2963C916.48 66.5556 915.886 68.4786 915.886 71.0653V74.9453C915.886 77.8042 916.48 79.8974 917.669 81.2247C918.858 82.5181 920.472 83.1647 922.51 83.1647Z" fill="#616161"/>
<path d="M940.093 59.7316H944.425V80.4079L957.012 59.7316H961.496V86.7895H957.165V66.1132L944.578 86.7895H940.093V59.7316ZM950.795 57.0768C948.247 57.0768 946.378 56.5153 945.189 55.3921C944 54.2349 943.406 52.5842 943.406 50.44H947.534C947.534 51.7333 947.788 52.6693 948.298 53.2479C948.841 53.7925 949.674 54.0647 950.795 54.0647C951.95 54.0647 952.782 53.7925 953.292 53.2479C953.836 52.6693 954.107 51.7333 954.107 50.44H958.184C958.184 52.5842 957.59 54.2349 956.4 55.3921C955.211 56.5153 953.343 57.0768 950.795 57.0768Z" fill="#616161"/>
<path d="M991.579 87.1468C989.948 87.1468 988.453 86.8916 987.094 86.3811C985.769 85.8365 984.631 85.0537 983.68 84.0326C982.763 82.9775 982.032 81.7012 981.489 80.2037C980.979 78.6721 980.724 76.9193 980.724 74.9453V71.0653C980.724 69.2274 980.979 67.5937 981.489 66.1642C982.032 64.7007 982.763 63.4754 983.68 62.4884C984.631 61.4674 985.769 60.7016 987.094 60.1911C988.453 59.6465 989.948 59.3742 991.579 59.3742C992.971 59.3742 994.262 59.5614 995.452 59.9358C996.641 60.3102 997.694 60.8547 998.611 61.5695C999.528 62.2842 1000.28 63.1521 1000.85 64.1732C1001.43 65.1602 1001.79 66.2663 1001.92 67.4916H997.388C997.116 66.3684 996.522 65.3984 995.604 64.5816C994.687 63.7647 993.345 63.3563 991.579 63.3563C989.642 63.3563 988.096 64.003 986.941 65.2963C985.786 66.5556 985.209 68.4786 985.209 71.0653V74.9453C985.209 77.8042 985.786 79.8974 986.941 81.2247C988.096 82.5181 989.642 83.1647 991.579 83.1647C993.345 83.1647 994.687 82.7393 995.604 81.8884C996.522 81.0375 997.099 80.0846 997.337 79.0295H1001.92C1001.31 81.7182 1000.12 83.7433 998.356 85.1047C996.624 86.4661 994.364 87.1468 991.579 87.1468Z" fill="#616161"/>
<path d="M1007.87 59.7316H1012.56L1021.53 76.63L1030.45 59.7316H1034.88V86.7895H1030.55V67.1342L1023.52 80.6632H1019.24L1012.21 67.1342V86.7895H1007.87V59.7316Z" fill="#616161"/>
<path d="M1052.19 87.1468C1050.56 87.1468 1049.07 86.8916 1047.71 86.3811C1046.38 85.8365 1045.25 85.0537 1044.29 84.0326C1043.38 82.9775 1042.65 81.7012 1042.1 80.2037C1041.59 78.6721 1041.34 76.9193 1041.34 74.9453V71.0653C1041.34 67.2533 1042.27 64.3604 1044.14 62.3863C1046.04 60.3782 1048.64 59.3742 1051.94 59.3742C1055.23 59.3742 1057.82 60.3782 1059.68 62.3863C1061.59 64.3604 1062.54 67.2874 1062.54 71.1674V74.5879H1045.82C1045.86 77.6851 1046.43 79.9144 1047.56 81.2758C1048.71 82.6032 1050.26 83.2668 1052.19 83.2668C1053.04 83.2668 1053.77 83.1647 1054.38 82.9605C1055.03 82.7223 1055.56 82.416 1055.96 82.0416C1056.41 81.6672 1056.75 81.2418 1056.98 80.7653C1057.22 80.2888 1057.39 79.7953 1057.49 79.2847H1062.03C1061.48 81.9395 1060.38 83.9135 1058.72 85.2068C1057.05 86.5002 1054.88 87.1468 1052.19 87.1468ZM1051.99 63.2542C1050.05 63.2542 1048.54 63.8498 1047.45 65.0411C1046.4 66.1982 1045.86 68.1553 1045.82 70.9121H1058.31C1058.24 68.1553 1057.66 66.1982 1056.58 65.0411C1055.52 63.8498 1053.99 63.2542 1051.99 63.2542Z" fill="#616161"/>
<path d="M1078.67 87.1468C1077.04 87.1468 1075.54 86.8916 1074.18 86.3811C1072.86 85.8365 1071.72 85.0537 1070.77 84.0326C1069.85 82.9775 1069.12 81.7012 1068.58 80.2037C1068.07 78.6721 1067.81 76.9193 1067.81 74.9453V71.0653C1067.81 69.2274 1068.07 67.5937 1068.58 66.1642C1069.12 64.7007 1069.85 63.4754 1070.77 62.4884C1071.72 61.4674 1072.86 60.7016 1074.18 60.1911C1075.54 59.6465 1077.04 59.3742 1078.67 59.3742C1080.06 59.3742 1081.35 59.5614 1082.54 59.9358C1083.73 60.3102 1084.78 60.8547 1085.7 61.5695C1086.62 62.2842 1087.36 63.1521 1087.94 64.1732C1088.52 65.1602 1088.88 66.2663 1089.01 67.4916H1084.48C1084.21 66.3684 1083.61 65.3984 1082.69 64.5816C1081.78 63.7647 1080.43 63.3563 1078.67 63.3563C1076.73 63.3563 1075.19 64.003 1074.03 65.2963C1072.88 66.5556 1072.3 68.4786 1072.3 71.0653V74.9453C1072.3 77.8042 1072.88 79.8974 1074.03 81.2247C1075.19 82.5181 1076.73 83.1647 1078.67 83.1647C1080.43 83.1647 1081.78 82.7393 1082.69 81.8884C1083.61 81.0375 1084.19 80.0846 1084.43 79.0295H1089.01C1088.4 81.7182 1087.21 83.7433 1085.45 85.1047C1083.71 86.4661 1081.45 87.1468 1078.67 87.1468Z" fill="#616161"/>
<path d="M1094.96 59.7316H1099.29V80.4079L1111.88 59.7316H1116.37V86.7895H1112.03V66.1132L1099.45 86.7895H1094.96V59.7316Z" fill="#616161"/>
<path d="M0 1.1532H18.1335V90.8468H0V1.1532Z" fill="#444791"/>
<path d="M38.6384 1.1532H56.0057L90.9957 61.1198V1.1532H108.363V90.8468H90.9957L56.0057 30.4958V90.8468H38.6384V1.1532Z" fill="#444791"/>
<path d="M160.362 92C149.38 92 140.696 88.5404 134.311 81.6212C128.011 74.702 124.861 64.1096 124.861 49.844V39.4652C124.861 32.9731 125.67 27.2925 127.288 22.4234C128.905 17.4689 131.246 13.3259 134.311 9.99443C137.376 6.66296 141.079 4.18571 145.421 2.56268C149.848 0.854226 154.828 0 160.362 0C165.64 0 170.28 0.726092 174.281 2.17828C178.283 3.54503 181.688 5.50975 184.498 8.07243C187.392 10.6351 189.691 13.753 191.393 17.4262C193.181 21.0139 194.458 25.0288 195.224 29.4708H176.708C175.601 25.1996 173.813 21.8682 171.344 19.4763C168.961 16.9991 165.3 15.7604 160.362 15.7604C154.999 15.7604 150.785 17.597 147.72 21.2702C144.655 24.8579 143.123 30.9656 143.123 39.5933V49.844C143.123 54.7985 143.506 58.9842 144.272 62.4011C145.123 65.7326 146.272 68.4234 147.72 70.4735C149.167 72.5237 150.955 74.0186 153.083 74.9582C155.212 75.8124 157.638 76.2396 160.362 76.2396C166.236 76.2396 170.578 74.7874 173.388 71.883C176.197 68.8932 177.602 64.7075 177.602 59.3259H160.362V44.9749H195.863V50.8691C195.863 57.9591 195.012 64.1096 193.309 69.3203C191.691 74.4457 189.35 78.7168 186.285 82.1337C183.221 85.4652 179.475 87.9424 175.048 89.5655C170.706 91.1885 165.811 92 160.362 92Z" fill="#444791"/>
<path d="M213.25 1.1532H231.384V90.8468H213.25V1.1532Z" fill="#444791"/>
<path d="M284.197 92C273.215 92 264.531 88.5404 258.146 81.6212C251.846 74.702 248.696 64.1096 248.696 49.844V39.4652C248.696 32.9731 249.505 27.2925 251.122 22.4234C252.74 17.4689 255.081 13.3259 258.146 9.99443C261.211 6.66296 264.914 4.18571 269.256 2.56268C273.683 0.854226 278.663 0 284.197 0C289.475 0 294.115 0.726092 298.116 2.17828C302.117 3.54503 305.523 5.50975 308.332 8.07243C311.227 10.6351 313.525 13.753 315.228 17.4262C317.016 21.0139 318.293 25.0288 319.059 29.4708H300.543C299.436 25.1996 297.648 21.8682 295.179 19.4763C292.795 16.9991 289.135 15.7604 284.197 15.7604C278.833 15.7604 274.619 17.597 271.554 21.2702C268.49 24.8579 266.957 30.9656 266.957 39.5933V49.844C266.957 54.7985 267.34 58.9842 268.107 62.4011C268.958 65.7326 270.107 68.4234 271.554 70.4735C273.002 72.5237 274.79 74.0186 276.918 74.9582C279.046 75.8124 281.473 76.2396 284.197 76.2396C290.071 76.2396 294.413 74.7874 297.222 71.883C300.032 68.8932 301.436 64.7075 301.436 59.3259H284.197V44.9749H319.698V50.8691C319.698 57.9591 318.846 64.1096 317.144 69.3203C315.526 74.4457 313.185 78.7168 310.12 82.1337C307.055 85.4652 303.309 87.9424 298.882 89.5655C294.541 91.1885 289.645 92 284.197 92Z" fill="#444791"/>
<path d="M368.499 92C357.517 92 348.833 88.5831 342.448 81.7493C336.148 74.8301 332.998 64.2377 332.998 49.9721V39.7215C332.998 26.6518 336.148 16.7855 342.448 10.1226C348.833 3.37419 357.517 0 368.499 0C379.482 0 388.123 3.37419 394.422 10.1226C400.807 16.7855 404 26.6518 404 39.7215V49.9721C404 64.2377 400.807 74.8301 394.422 81.7493C388.123 88.5831 379.482 92 368.499 92ZM368.499 76.2396C371.138 76.2396 373.522 75.8124 375.65 74.9582C377.864 74.104 379.694 72.6518 381.142 70.6017C382.589 68.5515 383.696 65.8607 384.462 62.5292C385.313 59.1124 385.739 54.9267 385.739 49.9721V39.7215C385.739 31.0938 384.206 24.9434 381.142 21.2702C378.077 17.597 373.863 15.7604 368.499 15.7604C363.136 15.7604 358.922 17.597 355.857 21.2702C352.792 24.9434 351.26 31.0938 351.26 39.7215V49.9721C351.26 54.9267 351.643 59.1124 352.409 62.5292C353.26 65.8607 354.41 68.5515 355.857 70.6017C357.304 72.6518 359.092 74.104 361.22 74.9582C363.349 75.8124 365.775 76.2396 368.499 76.2396Z" fill="#444791"/>
<path d="M432.952 93.6568C430.167 93.6568 427.792 92.7075 425.826 90.8089C423.942 88.8277 423 86.3925 423 83.5034C423 80.6967 423.942 78.3441 425.826 76.4455C427.792 74.4643 430.167 73.4738 432.952 73.4738C435.737 73.4738 438.072 74.4643 439.956 76.4455C441.922 78.3441 442.905 80.6967 442.905 83.5034C442.905 86.3925 441.922 88.8277 439.956 90.8089C438.072 92.7075 435.737 93.6568 432.952 93.6568Z" fill="#5B5FC7"/>
<path d="M508.919 88.2086C506.298 90.1072 503.349 91.5105 500.072 92.4186C496.878 93.2441 493.355 93.6568 489.506 93.6568C484.345 93.6568 479.676 92.8726 475.498 91.3042C471.403 89.6532 467.922 87.1768 465.055 83.8748C462.188 80.4903 459.976 76.2804 458.42 71.2449C456.945 66.127 456.208 60.0597 456.208 53.0431V43.1373C456.208 30.4249 459.157 20.8905 465.055 14.5343C470.952 8.17811 479.103 5 489.506 5C499.908 5 508.059 8.17811 513.956 14.5343C519.854 20.8905 522.803 30.4249 522.803 43.1373V53.0431C522.803 64.2696 520.878 73.061 517.028 79.4172L526.12 88.4563L517.765 97L508.919 88.2086ZM489.506 80.7793C493.273 80.7793 496.427 79.8712 498.966 78.0552L488.154 67.035L496.509 58.6151L506.093 68.397C506.748 66.4159 507.24 64.1871 507.567 61.7106C507.977 59.1516 508.182 56.2624 508.182 53.0431V43.1373C508.182 34.057 506.502 27.5769 503.144 23.6972C499.867 19.8174 495.321 17.8775 489.506 17.8775C483.69 17.8775 479.103 19.8174 475.744 23.6972C472.468 27.5769 470.829 34.057 470.829 43.1373V53.0431C470.829 58.2436 471.239 62.6187 472.058 66.1682C472.959 69.7178 474.188 72.5657 475.744 74.712C477.382 76.8582 479.348 78.4266 481.642 79.4172C483.935 80.3253 486.557 80.7793 489.506 80.7793Z" fill="#5B5FC7"/>
<path d="M541.961 5.99057H556.951L582.63 57.5007L608.433 5.99057H622.563V92.6662H608.433V31.498L587.668 73.7214H576.978L556.091 31.498V92.6662H541.961V5.99057Z" fill="#5B5FC7"/>
<path d="M673.808 93.6568C668.648 93.6568 663.979 92.8726 659.801 91.3042C655.706 89.6532 652.225 87.1768 649.358 83.8748C646.491 80.4903 644.279 76.2391 642.723 71.1211C641.248 66.0031 640.511 59.9358 640.511 52.9192V43.0135C640.511 30.3836 643.46 20.8905 649.358 14.5343C655.255 8.17811 663.406 5 673.808 5C683.392 5 690.805 7.35262 696.048 12.0579C701.372 16.6806 704.689 23.4495 706 32.3647H691.256C690.109 27.4118 688.184 23.7797 685.481 21.4684C682.86 19.0745 678.969 17.8775 673.808 17.8775C667.993 17.8775 663.406 19.8174 660.047 23.6972C656.771 27.5769 655.132 34.0157 655.132 43.0135V52.9192C655.132 58.1198 655.542 62.4948 656.361 66.0444C657.262 69.594 658.491 72.4832 660.047 74.712C661.685 76.8582 663.651 78.4266 665.945 79.4172C668.238 80.3253 670.86 80.7793 673.808 80.7793C679.051 80.7793 682.942 79.5823 685.481 77.1884C688.102 74.712 690.027 70.9148 691.256 65.7968H706C704.607 75.2898 701.249 82.3064 695.925 86.8466C690.6 91.3867 683.228 93.6568 673.808 93.6568Z" fill="#5B5FC7"/>
</svg>
